<svg width="65" height="65" viewBox="0 0 512 512" fill="none" xmlns="http://www.w3.org/2000/svg">
<rect width="512" height="512" fill="#E5E5E5" rx="500"/>
<rect width="512" height="512" fill="#202C40" rx="500"/>
<rect x="175" y="169.136" width="157" height="193" rx="30" fill="#BEE4FF"/>
<line x1="175" y1="203.636" x2="332" y2="203.636" stroke="#FB3D3D" stroke-width="5"/>
<line x1="175" y1="224.636" x2="332" y2="224.636" stroke="#858585" stroke-width="3"/>
<line x1="175" y1="263.636" x2="332" y2="263.636" stroke="#858585" stroke-width="3"/>
<line x1="175" y1="302.636" x2="332" y2="302.636" stroke="#858585" stroke-width="3"/>
<line x1="175" y1="243.636" x2="332" y2="243.636" stroke="#858585" stroke-width="3"/>
<line x1="175" y1="282.636" x2="332" y2="282.636" stroke="#858585" stroke-width="3"/>
<line x1="175" y1="322.636" x2="332" y2="322.636" stroke="#858585" stroke-width="3"/>
<line x1="176.953" y1="341.616" x2="330.247" y2="341.61" stroke="#858585" stroke-width="3"/>
<line x1="207.452" y1="169.3" x2="208.745" y2="361.65" stroke="#FB3D3D" stroke-width="5"/>
<path d="M337.017 159.662L329.383 170.06C324.973 164.106 321.019 159.541 315.947 155.973C310.824 152.369 304.624 149.823 295.783 147.814L302.741 138.337C305.84 134.116 310.081 132.465 314.612 132.557C319.193 132.649 324.097 134.531 328.325 137.458C332.551 140.384 336.006 144.288 337.744 148.302C339.478 152.304 339.476 156.313 337.017 159.662Z" fill="#FF7A30" stroke="black" stroke-width="2"/>
<path d="M245.177 241.897C240.19 239.279 235.935 237.431 231.718 236.835L287.793 160.456C292.122 161.322 296.206 163.253 300.997 165.866L245.177 241.897Z" fill="#E2B61A" stroke="black" stroke-width="2"/>
<path d="M311.344 172.962L255.545 248.589C252.203 246.111 249.948 244.515 245.863 242.107L301.518 166.301C305.584 168.637 307.981 170.387 311.344 172.962Z" fill="#E2B61A" stroke="black" stroke-width="2"/>
<path d="M265.511 258.818C263.487 255.505 260.822 252.717 256.42 248.921L312.25 172.876C317.012 176.665 319.698 179.202 321.692 182.294L265.511 258.818Z" fill="#E2B61A" stroke="black" stroke-width="2"/>
<path d="M323.245 179.884L320.83 183.174C316.124 176.532 311.814 171.851 306.597 168.388C301.385 164.928 295.333 162.73 287.216 160.946L289.752 157.491C294.463 157.958 301.276 160.502 307.728 164.487C314.259 168.521 320.243 173.922 323.245 179.884Z" fill="#CDCDCD" stroke="black" stroke-width="2"/>
<path d="M326.826 175.006L324.332 178.403C320.06 172.457 316.087 168.089 311.004 164.584C305.86 161.036 299.637 158.412 290.933 155.883L293.184 152.817C295.504 153.024 298.428 153.878 301.631 155.228C305.079 156.681 308.776 158.678 312.274 160.954C315.773 163.23 319.05 165.771 321.666 168.305C324.109 170.671 325.917 172.976 326.826 175.006Z" fill="#CDCDCD" stroke="black" stroke-width="2"/>
<path d="M329.858 170.876L327.534 174.042C323.185 168.192 319.173 163.88 314.089 160.381C308.944 156.84 302.758 154.169 294.125 151.536L296.216 148.687C298.505 148.94 301.4 149.828 304.578 151.2C308.009 152.681 311.699 154.693 315.198 156.972C318.697 159.25 321.986 161.781 324.623 164.291C327.079 166.628 328.912 168.893 329.858 170.876Z" fill="#CDCDCD" stroke="black" stroke-width="2"/>
<path d="M228.954 275.748C227.089 274.523 226.058 271.764 225.766 267.879C225.479 264.066 225.924 259.484 226.662 255.032C227.399 250.591 228.419 246.328 229.255 243.171C229.673 241.594 230.045 240.296 230.312 239.393C230.437 238.971 230.539 238.635 230.612 238.397C232.641 237.504 235.51 237.33 238.842 237.903C242.358 238.508 246.254 239.922 249.933 242.002C257.163 246.089 263.322 252.598 264.33 260.25C264.135 260.399 263.878 260.593 263.566 260.827C262.79 261.409 261.67 262.234 260.297 263.206C257.55 265.151 253.799 267.679 249.772 270.017C245.736 272.362 241.469 274.489 237.683 275.664C233.823 276.861 230.803 276.963 228.954 275.748Z" fill="#E7C89F" stroke="black" stroke-width="2"/>
<path d="M228.916 275.463C227.993 274.857 227.312 273.764 226.854 272.304C226.399 270.858 226.199 269.168 226.143 267.526C226.087 265.891 226.176 264.345 226.279 263.204C226.328 262.668 226.38 262.224 226.42 261.905C226.632 261.86 226.909 261.834 227.263 261.846C227.899 261.868 228.686 262.008 229.587 262.269C231.387 262.79 233.514 263.755 235.581 265C237.646 266.245 239.607 267.744 241.092 269.308C242.352 270.635 243.205 271.941 243.552 273.126C243.255 273.261 242.872 273.429 242.423 273.618C241.281 274.097 239.716 274.701 238.013 275.207C236.303 275.716 234.493 276.116 232.85 276.207C231.189 276.299 229.838 276.069 228.916 275.463Z" fill="#65656F" stroke="black" stroke-width="2"/>
</svg>
